<?xml version="1.0" encoding="UTF-8"?>
<svg version="1.1" xmlns="http://www.w3.org/2000/svg" width="498" height="474">
<path d="M0 0 C1.04099854 0.02263916 2.08199707 0.04527832 3.15454102 0.06860352 C5.52257834 0.14100634 7.88455261 0.24425987 10.25 0.375 C11.05937012 0.41753906 11.86874023 0.46007813 12.70263672 0.50390625 C33.40902324 1.70451162 33.40902324 1.70451162 38 4 C40.03583123 4.38630039 42.0787318 4.73596784 44.125 5.0625 C45.22070312 5.23910156 46.31640625 5.41570313 47.4453125 5.59765625 C48.28835938 5.73042969 49.13140625 5.86320313 50 6 C50 6.66 50 7.32 50 8 C51.093125 7.79375 52.18625 7.5875 53.3125 7.375 C57 7 57 7 60 9 C62.56766546 9.6117498 65.09543602 10.15063535 67.6875 10.625 C68.38939453 10.7590625 69.09128906 10.893125 69.81445312 11.03125 C71.54181706 11.3602717 73.27076591 11.68095312 75 12 C75.33 12.99 75.66 13.98 76 15 C77.98 15 79.96 15 82 15 C82 15.66 82 16.32 82 17 C83.98 17 85.96 17 88 17 C88.33 17.66 88.66 18.32 89 19 C91.52733235 19.65555119 91.52733235 19.65555119 94 20 C94 20.66 94 21.32 94 22 C95.2375 22.12375 95.2375 22.12375 96.5 22.25 C101.54766946 23.33164346 105.94392561 25.44236789 110.0625 28.5625 C112.13450732 30.22299018 112.13450732 30.22299018 115.5 31.4375 C119 33 119 33 120.828125 34.83984375 C124.27589458 38.26901025 128.42364919 40.60111731 132.515625 43.1953125 C133.33546875 43.79085937 134.1553125 44.38640625 135 45 C135 45.66 135 46.32 135 47 C136.32 47.33 137.64 47.66 139 48 C139 48.66 139 49.32 139 50 C139.58523438 50.27199219 140.17046875 50.54398438 140.7734375 50.82421875 C146.20877889 53.69446043 149.99233958 57.14432378 152 63 C152.99 63.33 153.98 63.66 155 64 C155 64.99 155 65.98 155 67 C155.99 67 156.98 67 158 67 C158 67.66 158 68.32 158 69 C158.66 69 159.32 69 160 69 C162.17204 71.96187272 163.83561997 74.50685991 165 78 C165.66 78 166.32 78 167 78 C168.90512919 80.69893301 170.0258917 83.08414802 171 86.25 C171.33 87.1575 171.66 88.065 172 89 C172.99 89.33 173.98 89.66 175 90 C177.21751399 93.69585666 178 95.63008373 178 100 C178.99 100.33 179.98 100.66 181 101 C181.33 102.98 181.66 104.96 182 107 C182.66 107 183.32 107 184 107 C184.19335938 107.61488281 184.38671875 108.22976562 184.5859375 108.86328125 C184.84632813 109.67152344 185.10671875 110.47976562 185.375 111.3125 C185.75785156 112.51326172 185.75785156 112.51326172 186.1484375 113.73828125 C186.98831811 116.22724528 186.98831811 116.22724528 189 119 C189.52142846 120.35953597 189.9972375 121.73705381 190.4375 123.125 C190.82035156 124.31416016 190.82035156 124.31416016 191.2109375 125.52734375 C191.47132813 126.34332031 191.73171875 127.15929687 192 128 C192.51852252 129.56326838 193.03928904 131.12579455 193.5625 132.6875 C194.70833333 136.125 195.85416667 139.5625 197 143 C197.24878906 143.61875 197.49757813 144.2375 197.75390625 144.875 C200.38222535 151.78227339 200.69731091 158.66239898 201 166 C201.99 166.33 202.98 166.66 204 167 C205.63947038 181.78706781 207.06660838 196.48235695 207.125 211.375 C207.12967285 212.21482422 207.1343457 213.05464844 207.13916016 213.91992188 C207.1230936 219.8769064 207.1230936 219.8769064 206 221 C205.78936893 223.50416935 205.62427923 225.99140081 205.5 228.5 C205.13513514 235.86486486 205.13513514 235.86486486 204 237 C203.96823695 239.49113048 204.06822746 241.96759961 204.16015625 244.45703125 C203.98743326 247.19953528 203.25810095 248.59817091 202 251 C201.58792592 253.32283358 201.58792592 253.32283358 201.4375 255.6875 C201.09964413 259.90035587 201.09964413 259.90035587 200 261 C199.855625 262.11375 199.71125 263.2275 199.5625 264.375 C199 268 199 268 197 271 C196.16334912 273.81533022 195.47834487 276.65112125 194.78125 279.50390625 C194 282 194 282 192 284 C191.18234177 286.57284083 190.53622946 289.16713179 189.87890625 291.78515625 C189.58886719 292.51605469 189.29882812 293.24695313 189 294 C188.01 294.33 187.02 294.66 186 295 C185.95875 295.804375 185.9175 296.60875 185.875 297.4375 C184.64901254 302.42902038 181.96187265 305.85996023 179 310 C178.37867188 310.92425781 177.75734375 311.84851563 177.1171875 312.80078125 C176.50101562 313.71214844 175.88484375 314.62351562 175.25 315.5625 C174.67765625 316.40941406 174.1053125 317.25632812 173.515625 318.12890625 C173.01546875 318.74636719 172.5153125 319.36382812 172 320 C171.34 320 170.68 320 170 320 C169.67 321.65 169.34 323.3 169 325 C168.34 325 167.68 325 167 325 C166.67 326.32 166.34 327.64 166 329 C165.34 329 164.68 329 164 329 C162.79371992 331.33214148 161.8345262 333.49642139 161 336 C160.34 336 159.68 336 159 336 C159 336.66 159 337.32 159 338 C157.5390625 339.5078125 157.5390625 339.5078125 155.625 341.125 C154.99851562 341.66382813 154.37203125 342.20265625 153.7265625 342.7578125 C152 344 152 344 150 344 C149.731875 344.845625 149.46375 345.69125 149.1875 346.5625 C148 350 148 350 146.37890625 353.1640625 C144.49552345 357.52057423 145.03333215 361.22184428 145.75 365.8125 C145.85054688 366.57498047 145.95109375 367.33746094 146.0546875 368.12304688 C146.58355803 372.18767786 146.58355803 372.18767786 148 376 C148.07033769 377.87379605 148.0843022 379.75001102 148.0625 381.625 C148.05347656 382.62789063 148.04445313 383.63078125 148.03515625 384.6640625 C148.01775391 385.82035156 148.01775391 385.82035156 148 387 C148.66 387 149.32 387 150 387 C150.20753906 388.08796875 150.41507812 389.1759375 150.62890625 390.296875 C152.44171936 399.14594656 154.62021628 406.15734714 159.609375 413.77734375 C161 416 161 416 161 418 C161.59296875 418.2578125 162.1859375 418.515625 162.796875 418.78125 C165.17660965 420.09769895 166.50978792 421.42580782 168.25 423.5 C168.77078125 424.1084375 169.2915625 424.716875 169.828125 425.34375 C171 427 171 427 171 429 C171.99 429.33 172.98 429.66 174 430 C176.17011918 432.44138408 177.92050382 434.86326657 179.5625 437.6875 C180.93965374 440.25862684 180.93965374 440.25862684 184 442 C185.49470029 446.48410087 185.09166185 451.32524567 185 456 C171.34908639 462.12796487 151.06462576 460.10931674 137 456 C137 455.34 137 454.68 137 454 C135.02 454 133.04 454 131 454 C131 453.34 131 452.68 131 452 C129.824375 452.061875 129.824375 452.061875 128.625 452.125 C126 452 126 452 124 450 C121.42938689 449.35232207 121.42938689 449.35232207 119 449 C119 448.34 119 447.68 119 447 C117.35 447 115.7 447 114 447 C113.34 445.68 112.68 444.36 112 443 C111.01 443.33 110.02 443.66 109 444 C105.82241307 442.63817703 103.45140787 441.45140787 101 439 C98.93125966 438.3574765 98.93125966 438.3574765 97 438 C97 437.34 97 436.68 97 436 C96.34 435.7525 95.68 435.505 95 435.25 C91.23639093 433.68182955 87.6288576 431.85494954 84 430 C84 429.34 84 428.68 84 428 C82.68 427.67 81.36 427.34 80 427 C80 426.34 80 425.68 80 425 C79.34 425 78.68 425 78 425 C78 424.34 78 423.68 78 423 C76.02 422.67 74.04 422.34 72 422 C72 421.34 72 420.68 72 420 C71.401875 419.71125 70.80375 419.4225 70.1875 419.125 C68 418 68 418 65 416 C65 415.34 65 414.68 65 414 C64.195625 413.731875 63.39125 413.46375 62.5625 413.1875 C61.716875 412.795625 60.87125 412.40375 60 412 C59.67 411.01 59.34 410.02 59 409 C58.401875 408.855625 57.80375 408.71125 57.1875 408.5625 C54.20915578 407.79664006 53.14932246 406.20902586 51 404 C48.89295927 402.45213547 46.76334414 400.94668019 44.609375 399.46484375 C44.07828125 398.98144531 43.5471875 398.49804688 43 398 C43 397.01 43 396.02 43 395 C41.41532272 395.28427417 39.8322943 395.57774818 38.25 395.875 C37.36828125 396.03742188 36.4865625 396.19984375 35.578125 396.3671875 C33.04337528 396.87998707 33.04337528 396.87998707 31.09375 398 C24.10654918 401.33717054 14.65417043 401.30616682 7 401 C7 401.66 7 402.32 7 403 C-4.31128507 404.55172864 -15.61079778 405.62568852 -26.99780273 406.43261719 C-29.66786385 406.62359551 -32.33677812 406.82708749 -35.00585938 407.03125 C-51.01312323 408.2098414 -67.03045838 408.47356598 -83.0625 407.5625 C-84.3009668 407.50352539 -84.3009668 407.50352539 -85.56445312 407.44335938 C-89.20123023 407.25163958 -92.46826553 406.90240684 -96 406 C-99.39745391 405.70132273 -102.7953517 405.49328176 -106.19921875 405.28125 C-109 405 -109 405 -110 404 C-112.22145633 403.71612221 -114.44317648 403.55234827 -116.67578125 403.37890625 C-119.12879913 402.97900249 -120.80811085 402.13262891 -123 401 C-123.845625 401 -124.69125 401 -125.5625 401 C-128 401 -128 401 -131 399 C-134.33713534 398.14977444 -137.69320104 397.47318953 -141.06640625 396.78125 C-144 396 -144 396 -146 394 C-147.81577419 393.43957587 -149.65306585 392.94715248 -151.5 392.5 C-156.77777778 391.22222222 -156.77777778 391.22222222 -159 389 C-160.64851615 388.44306887 -162.3190267 387.94956263 -164 387.5 C-168.77777778 386.22222222 -168.77777778 386.22222222 -171 384 C-171.78375 383.690625 -172.5675 383.38125 -173.375 383.0625 C-176.00128951 381.99947806 -177.88711701 380.87811821 -180 379 C-180 378.34 -180 377.68 -180 377 C-180.680625 376.9175 -181.36125 376.835 -182.0625 376.75 C-185.8746907 375.77667472 -188.64070329 374.04192545 -192 372 C-192 371.34 -192 370.68 -192 370 C-193.32 369.34 -194.64 368.68 -196 368 C-196 367.34 -196 366.68 -196 366 C-196.680625 365.938125 -197.36125 365.87625 -198.0625 365.8125 C-201.95451162 364.73598615 -205.03444754 362.74334968 -208 360 C-208 359.34 -208 358.68 -208 358 C-208.99 357.67 -209.98 357.34 -211 357 C-215 352.54285714 -215 352.54285714 -215 350 C-215.99 349.67 -216.98 349.34 -218 349 C-218 348.34 -218 347.68 -218 347 C-218.99 347 -219.98 347 -221 347 C-221 346.01 -221 345.02 -221 344 C-221.99 343.67 -222.98 343.34 -224 343 C-224.66666667 341.66666667 -225.33333333 340.33333333 -226 339 C-226.845625 338.154375 -227.69125 337.30875 -228.5625 336.4375 C-231 334 -231 334 -232 331 C-232.680625 330.319375 -232.680625 330.319375 -233.375 329.625 C-235.40866965 327.59133035 -236.68991565 325.55778373 -238 323 C-238 321.68 -238 320.36 -238 319 C-238.99 318.67 -239.98 318.34 -241 318 C-241.33 316.02 -241.66 314.04 -242 312 C-242.66 312 -243.32 312 -244 312 C-244.33 309.69 -244.66 307.38 -245 305 C-245.66 305 -246.32 305 -247 305 C-247.29003906 303.95199219 -247.29003906 303.95199219 -247.5859375 302.8828125 C-247.84632813 301.97273438 -248.10671875 301.06265625 -248.375 300.125 C-248.75785156 298.76761719 -248.75785156 298.76761719 -249.1484375 297.3828125 C-249.8604315 294.85430274 -249.8604315 294.85430274 -252 293 C-252.4140625 290.6171875 -252.4140625 290.6171875 -252.625 287.875 C-252.69976562 286.96492188 -252.77453125 286.05484375 -252.8515625 285.1171875 C-252.90054688 284.41851562 -252.94953125 283.71984375 -253 283 C-253.66 283 -254.32 283 -255 283 C-256.82430754 279.35138491 -256.86878558 275.07930177 -257.40234375 271.06640625 C-257.82613609 267.84340905 -257.82613609 267.84340905 -260 265 C-260.43666121 262.57394053 -260.77246448 260.21875279 -261.03515625 257.7734375 C-261.16039421 256.68211266 -261.16039421 256.68211266 -261.28816223 255.56874084 C-261.55775305 253.17192651 -261.81193281 250.77387427 -262.0625 248.375 C-262.14993469 247.55299103 -262.23736938 246.73098206 -262.32745361 245.88406372 C-264.72159688 223.09776793 -266.5823187 199.85567409 -263.29833984 177.07666016 C-262.99931515 174.99523298 -262.73967058 172.91188616 -262.48828125 170.82421875 C-261.2904698 161.4429595 -261.2904698 161.4429595 -259 157 C-258.59071349 154.90685751 -258.59071349 154.90685751 -258.4375 152.8125 C-258 149 -258 149 -257 148 C-256.835 146.845 -256.67 145.69 -256.5 144.5 C-256 141 -256 141 -255 140 C-254.67708203 138.63200204 -254.39165725 137.25506824 -254.125 135.875 C-253.22627881 131.64296214 -251.78831452 127.94919457 -250 124 C-249.71125 123.09121094 -249.4225 122.18242187 -249.125 121.24609375 C-247.85902862 117.59323883 -246.24257344 114.19140026 -244.5 110.75 C-244.19191406 110.12609375 -243.88382813 109.5021875 -243.56640625 108.859375 C-242.24157159 106.22107766 -241.10147397 104.10147397 -239 102 C-238.69964844 101.23558594 -238.39929688 100.47117187 -238.08984375 99.68359375 C-236.90908003 96.77612179 -235.41746583 94.58764703 -233.5625 92.0625 C-230.98531858 88.4705534 -228.80302295 85.03028658 -227 81 C-226.34 81 -225.68 81 -225 81 C-224.773125 80.46375 -224.54625 79.9275 -224.3125 79.375 C-222.54429911 76.17539839 -220.46329797 73.70962777 -218 71 C-217.34 71 -216.68 71 -216 71 C-215.62875 70.071875 -215.62875 70.071875 -215.25 69.125 C-213.77229238 66.61289704 -212.56044823 66.23892656 -210 65 C-209.505 63.515 -209.505 63.515 -209 62 C-204.54285714 58 -204.54285714 58 -202 58 C-201.34 56.68 -200.68 55.36 -200 54 C-199.34 54 -198.68 54 -198 54 C-198 53.34 -198 52.68 -198 52 C-197.1646875 51.9071875 -197.1646875 51.9071875 -196.3125 51.8125 C-193.73292379 51.09353302 -193.73292379 51.09353302 -191.5 48.5 C-188.99624588 45.99624588 -188.24509265 45.695377 -185 45 C-184.67 44.01 -184.34 43.02 -184 42 C-182.2578125 40.83203125 -182.2578125 40.83203125 -180.125 39.8125 C-179.42632812 39.46832031 -178.72765625 39.12414063 -178.0078125 38.76953125 C-176 38 -176 38 -173 38 C-173 37.01 -173 36.02 -173 35 C-172.24074219 34.66226563 -171.48148437 34.32453125 -170.69921875 33.9765625 C-169.70535156 33.53054687 -168.71148437 33.08453125 -167.6875 32.625 C-166.70136719 32.18414062 -165.71523437 31.74328125 -164.69921875 31.2890625 C-161.87254793 30.01757242 -161.87254793 30.01757242 -159 28 C-155.8125 27.875 -155.8125 27.875 -153 28 C-152.505 26.515 -152.505 26.515 -152 25 C-150.13413276 24.21972825 -148.25764045 23.45837543 -146.34375 22.8046875 C-144.04073467 22.01398557 -141.81162557 21.11950066 -139.5625 20.1875 C-129.13349881 16.00947179 -118.58595518 12.11781333 -107.61328125 9.640625 C-104.97381794 9.04392558 -104.97381794 9.04392558 -102.40283203 8.05297852 C-98.27266505 6.77493215 -94.21589871 6.11132953 -89.94140625 5.51171875 C-89.0360463 5.38415695 -88.13068634 5.25659515 -87.19789124 5.12516785 C-75.75407444 3.5973336 -64.24991564 2.82567187 -52.73413086 2.06469727 C-48.93845107 1.81256318 -45.1440979 1.54480004 -41.34960938 1.27539062 C-27.54712617 0.32199948 -13.83511295 -0.31547846 0 0 Z " fill="#75BC9F" transform="translate(279,8)"/>
<path d="M0 0 C6.79442812 4.43525169 10.0199921 9.29618426 12.09375 17.01953125 C13.29390096 27.1096893 9.98394858 34.92220078 4.09375 43.01953125 C-1.27373509 48.32416523 -8.29618111 51.12511562 -15.78125 51.39453125 C-22.44993743 51.15819872 -28.56972138 49.94970706 -33.78125 45.64453125 C-34.833125 44.34515625 -34.833125 44.34515625 -35.90625 43.01953125 C-36.586875 42.25640625 -37.2675 41.49328125 -37.96875 40.70703125 C-44.04470749 32.27909022 -45.15983942 25.14120387 -44.22412109 14.90722656 C-43.48445953 10.51470488 -41.07357723 7.94268127 -37.90625 5.01953125 C-37.34164062 4.38660156 -36.77703125 3.75367188 -36.1953125 3.1015625 C-25.66661614 -8.4514188 -12.80072758 -6.73799766 0 0 Z " fill="#FCFDFD" transform="translate(263.90625,202.98046875)"/>
<path d="M0 0 C9.42998255 0.0724587 18.01462995 4.28278305 24.8515625 10.76953125 C30.34261633 17.62532069 30.0548321 27.11111181 29.1875 35.4375 C27.47563306 41.76956695 23.96679279 48.11000871 18.265625 51.62109375 C16.26813617 52.64612091 14.25093585 53.55438342 12.1875 54.4375 C11.40375 54.85 10.62 55.2625 9.8125 55.6875 C2.96256844 57.6446233 -4.16024913 56.65491696 -10.8125 54.4375 C-15.1067423 52.0426341 -18.03205845 49.50122227 -20.8125 45.4375 C-20.8125 44.7775 -20.8125 44.1175 -20.8125 43.4375 C-21.8025 43.1075 -22.7925 42.7775 -23.8125 42.4375 C-26.96292556 35.30758953 -27.48552333 24.89100078 -24.75 17.5625 C-20.06114157 9.99982512 -15.00088811 4.86173503 -6.8125 1.4375 C-5.00392312 -0.37107688 -2.44814081 0.09583469 0 0 Z " fill="#FBFDFD" transform="translate(147.8125,197.5625)"/>
<path d="M0 0 C4.49964364 2.6044133 7.61888886 4.91660914 10.3125 9.375 C11.125 12.75 11.125 12.75 11.3125 15.375 C11.9725 15.375 12.6325 15.375 13.3125 15.375 C15.48269239 23.51322144 15.05223195 32.7570275 11.3125 40.375 C10.3225 40.705 9.3325 41.035 8.3125 41.375 C7.8175 42.1175 7.3225 42.86 6.8125 43.625 C2.12705874 48.77898539 -3.58418542 51.03125812 -10.4609375 51.79296875 C-18.57082603 51.96293647 -25.69598187 52.0762259 -31.8359375 46.3828125 C-35.59534353 42.35196921 -38.53388122 38.4423383 -40.6875 33.375 C-41.0175 33.045 -41.3475 32.715 -41.6875 32.375 C-42.86389213 14.43502001 -42.86389213 14.43502001 -36.73046875 7.00390625 C-26.79997418 -3.56944827 -13.20670179 -6.22741755 0 0 Z " fill="#FBFDFD" transform="translate(357.6875,201.625)"/>
<path d="M0 0 C1.25180279 4.21919103 0.67252421 7.96088565 0.0625 12.25 C-0.03740234 12.99507812 -0.13730469 13.74015625 -0.24023438 14.5078125 C-0.48680156 16.33945442 -0.74250391 18.16986251 -1 20 C-1.33 20 -1.66 20 -2 20 C-2.05392397 17.22890693 -2.09363455 14.45886182 -2.125 11.6875 C-2.14175781 10.90181641 -2.15851563 10.11613281 -2.17578125 9.30664062 C-2.18544922 8.1706543 -2.18544922 8.1706543 -2.1953125 7.01171875 C-2.20578613 6.31522217 -2.21625977 5.61872559 -2.22705078 4.90112305 C-2 3 -2 3 0 0 Z " fill="#C7E3D8" transform="translate(222,213)"/>
</svg>
